<?xml version="1.0" standalone="no"?>
<!DOCTYPE svg PUBLIC "-//W3C//DTD SVG 20010904//EN"
 "http://www.w3.org/TR/2001/REC-SVG-20010904/DTD/svg10.dtd">
<svg version="1.0" xmlns="http://www.w3.org/2000/svg"
 width="1280.000000pt" height="1280.000000pt" viewBox="0 0 1280.000000 1280.000000"
 preserveAspectRatio="xMidYMid meet">
<metadata>
Created by potrace 1.15, written by Peter Selinger 2001-2017
</metadata>
<g transform="translate(0.000000,1280.000000) scale(0.100000,-0.100000)"
fill="#000000" stroke="none">
<path d="M1230 12784 c0 -8 5 -12 10 -9 6 3 10 10 10 16 0 5 -4 9 -10 9 -5 0
-10 -7 -10 -16z"/>
<path d="M3110 12789 c0 -5 5 -7 10 -4 6 3 10 8 10 11 0 2 -4 4 -10 4 -5 0
-10 -5 -10 -11z"/>
<path d="M4890 12764 c0 -31 23 -28 28 4 2 15 -2 22 -12 22 -11 0 -16 -9 -16
-26z"/>
<path d="M11447 12773 c-4 -3 -7 -15 -7 -25 0 -26 24 -17 28 10 3 21 -8 29
-21 15z"/>
<path d="M6800 12744 c0 -31 23 -28 28 4 2 15 -2 22 -12 22 -11 0 -16 -9 -16
-26z"/>
<path d="M8960 12725 c0 -14 5 -25 10 -25 6 0 10 11 10 25 0 14 -4 25 -10 25
-5 0 -10 -11 -10 -25z"/>
<path d="M3110 12715 c0 -14 5 -25 10 -25 6 0 10 11 10 25 0 14 -4 25 -10 25
-5 0 -10 -11 -10 -25z"/>
<path d="M1238 12724 c-5 -4 -8 -19 -8 -33 0 -18 3 -22 11 -14 6 6 9 21 7 33
-1 12 -6 18 -10 14z"/>
<path d="M4890 12664 c0 -31 23 -28 28 4 2 15 -2 22 -12 22 -11 0 -16 -9 -16
-26z"/>
<path d="M11440 12654 c0 -31 23 -28 28 4 2 15 -2 22 -12 22 -11 0 -16 -9 -16
-26z"/>
<path d="M6800 12644 c0 -31 23 -28 28 4 2 15 -2 22 -12 22 -11 0 -16 -9 -16
-26z"/>
<path d="M8960 12625 c0 -14 5 -25 10 -25 6 0 10 11 10 25 0 14 -4 25 -10 25
-5 0 -10 -11 -10 -25z"/>
<path d="M3110 12615 c0 -14 5 -25 10 -25 6 0 10 11 10 25 0 14 -4 25 -10 25
-5 0 -10 -11 -10 -25z"/>
<path d="M1237 12623 c-11 -10 -8 -43 3 -43 6 0 10 11 10 25 0 26 -2 29 -13
18z"/>
<path d="M4890 12564 c0 -31 23 -28 28 4 2 15 -2 22 -12 22 -11 0 -16 -9 -16
-26z"/>
<path d="M11453 12583 c-15 -6 -17 -53 -3 -53 6 0 13 6 16 14 8 22 1 44 -13
39z"/>
<path d="M6800 12544 c0 -31 23 -28 28 4 2 15 -2 22 -12 22 -11 0 -16 -9 -16
-26z"/>
<path d="M8968 12554 c-5 -4 -8 -19 -8 -33 0 -18 3 -22 11 -14 6 6 9 21 7 33
-1 12 -6 18 -10 14z"/>
<path d="M3110 12515 c0 -14 5 -25 10 -25 6 0 10 11 10 25 0 14 -4 25 -10 25
-5 0 -10 -11 -10 -25z"/>
<path d="M1230 12505 c0 -14 5 -25 10 -25 6 0 10 11 10 25 0 14 -4 25 -10 25
-5 0 -10 -11 -10 -25z"/>
<path d="M4890 12464 c0 -31 23 -28 28 4 2 15 -2 22 -12 22 -11 0 -16 -9 -16
-26z"/>
<path d="M11453 12483 c-15 -6 -17 -53 -3 -53 6 0 13 6 16 14 8 22 1 44 -13
39z"/>
<path d="M6807 12473 c-4 -3 -7 -17 -7 -30 0 -33 24 -24 28 10 3 26 -7 35 -21
20z"/>
<path d="M8968 12454 c-5 -4 -8 -19 -8 -33 0 -18 3 -22 11 -14 6 6 9 21 7 33
-1 12 -6 18 -10 14z"/>
<path d="M3110 12415 c0 -14 5 -25 10 -25 6 0 10 11 10 25 0 14 -4 25 -10 25
-5 0 -10 -11 -10 -25z"/>
<path d="M1230 12405 c0 -14 5 -25 10 -25 6 0 10 11 10 25 0 14 -4 25 -10 25
-5 0 -10 -11 -10 -25z"/>
<path d="M4897 12394 c-4 -4 -7 -18 -7 -31 0 -28 23 -27 28 1 4 20 -11 40 -21
30z"/>
<path d="M11453 12383 c-15 -6 -17 -53 -3 -53 6 0 13 6 16 14 8 22 1 44 -13
39z"/>
<path d="M6807 12373 c-4 -3 -7 -17 -7 -29 0 -17 4 -22 15 -18 8 4 15 17 15
30 0 23 -10 31 -23 17z"/>
<path d="M8968 12354 c-5 -4 -8 -19 -8 -33 0 -18 3 -22 11 -14 6 6 9 21 7 33
-1 12 -6 18 -10 14z"/>
<path d="M3110 12315 c0 -14 5 -25 10 -25 6 0 10 11 10 25 0 14 -4 25 -10 25
-5 0 -10 -11 -10 -25z"/>
<path d="M1230 12305 c0 -14 5 -25 10 -25 6 0 10 11 10 25 0 14 -4 25 -10 25
-5 0 -10 -11 -10 -25z"/>
<path d="M4896 12293 c-3 -3 -6 -17 -6 -29 0 -17 4 -22 15 -18 8 4 15 14 15
24 0 20 -13 33 -24 23z"/>
<path d="M11447 12283 c-4 -3 -7 -17 -7 -30 0 -33 24 -24 28 10 3 26 -7 35
-21 20z"/>
<path d="M6807 12273 c-4 -3 -7 -17 -7 -29 0 -17 4 -22 15 -18 8 4 15 17 15
30 0 23 -10 31 -23 17z"/>
<path d="M8968 12254 c-5 -4 -8 -19 -8 -33 0 -18 3 -22 11 -14 6 6 9 21 7 33
-1 12 -6 18 -10 14z"/>
<path d="M3110 12215 c0 -14 5 -25 10 -25 6 0 10 11 10 25 0 14 -4 25 -10 25
-5 0 -10 -11 -10 -25z"/>
<path d="M1230 12205 c0 -14 5 -25 10 -25 6 0 10 11 10 25 0 14 -4 25 -10 25
-5 0 -10 -11 -10 -25z"/>
<path d="M4896 12193 c-3 -3 -6 -17 -6 -31 0 -21 2 -22 15 -12 8 7 15 18 15
26 0 15 -15 26 -24 17z"/>
<path d="M11447 12183 c-13 -12 -7 -43 8 -43 9 0 15 9 15 25 0 24 -10 32 -23
18z"/>
<path d="M6807 12173 c-4 -3 -7 -17 -7 -29 0 -17 4 -22 15 -18 8 4 15 17 15
30 0 23 -10 31 -23 17z"/>
<path d="M8968 12154 c-5 -4 -8 -19 -8 -33 0 -18 3 -22 11 -14 6 6 9 21 7 33
-1 12 -6 18 -10 14z"/>
<path d="M3118 12144 c-5 -4 -8 -19 -8 -33 0 -18 3 -22 11 -14 6 6 9 21 7 33
-1 12 -6 18 -10 14z"/>
<path d="M1230 12105 c0 -14 5 -25 10 -25 6 0 10 11 10 25 0 14 -4 25 -10 25
-5 0 -10 -11 -10 -25z"/>
<path d="M4896 12093 c-3 -3 -6 -17 -6 -31 0 -21 2 -22 15 -12 8 7 15 18 15
26 0 15 -15 26 -24 17z"/>
<path d="M11447 12083 c-13 -12 -7 -43 8 -43 9 0 15 9 15 25 0 24 -10 32 -23
18z"/>
<path d="M6807 12073 c-4 -3 -7 -17 -7 -29 0 -17 4 -22 15 -18 8 4 15 17 15
30 0 23 -10 31 -23 17z"/>
<path d="M8968 12054 c-5 -4 -8 -19 -8 -33 0 -18 3 -22 11 -14 6 6 9 21 7 33
-1 12 -6 18 -10 14z"/>
<path d="M3118 12044 c-5 -4 -8 -19 -8 -33 0 -18 3 -22 11 -14 6 6 9 21 7 33
-1 12 -6 18 -10 14z"/>
<path d="M1237 12033 c-11 -10 -8 -53 3 -53 6 0 10 14 10 30 0 31 -2 35 -13
23z"/>
<path d="M4896 11993 c-3 -3 -6 -17 -6 -31 0 -21 2 -22 15 -12 8 7 15 18 15
26 0 15 -15 26 -24 17z"/>
<path d="M11447 11983 c-13 -12 -7 -43 8 -43 9 0 15 9 15 25 0 24 -10 32 -23
18z"/>
<path d="M6807 11973 c-4 -3 -7 -15 -7 -25 0 -26 24 -17 28 10 3 21 -8 29 -21
15z"/>
<path d="M8960 11929 c0 -17 4 -28 10 -24 6 3 10 17 10 31 0 13 -4 24 -10 24
-5 0 -10 -14 -10 -31z"/>
<path d="M3118 11944 c-5 -4 -8 -19 -8 -33 0 -18 3 -22 11 -14 6 6 9 21 7 33
-1 12 -6 18 -10 14z"/>
<path d="M1238 11934 c-5 -4 -8 -19 -8 -33 0 -18 3 -22 11 -14 6 6 9 21 7 33
-1 12 -6 18 -10 14z"/>
<path d="M4897 11893 c-4 -3 -7 -17 -7 -31 0 -21 2 -22 15 -12 8 7 15 21 15
31 0 19 -11 25 -23 12z"/>
<path d="M11447 11883 c-13 -12 -7 -43 8 -43 9 0 15 9 15 25 0 24 -10 32 -23
18z"/>
<path d="M6807 11873 c-4 -3 -7 -15 -7 -25 0 -26 24 -17 28 10 3 21 -8 29 -21
15z"/>
<path d="M8960 11835 c0 -14 5 -25 10 -25 6 0 10 11 10 25 0 14 -4 25 -10 25
-5 0 -10 -11 -10 -25z"/>
<path d="M3118 11844 c-5 -4 -8 -19 -8 -33 0 -18 3 -22 11 -14 6 6 9 21 7 33
-1 12 -6 18 -10 14z"/>
<path d="M1238 11834 c-5 -4 -8 -19 -8 -33 0 -18 3 -22 11 -14 6 6 9 21 7 33
-1 12 -6 18 -10 14z"/>
<path d="M4897 11793 c-4 -3 -7 -15 -7 -25 0 -26 24 -17 28 10 3 21 -8 29 -21
15z"/>
<path d="M11447 11783 c-13 -12 -7 -43 8 -43 9 0 15 9 15 25 0 24 -10 32 -23
18z"/>
<path d="M6800 11754 c0 -31 23 -28 28 4 2 15 -2 22 -12 22 -11 0 -16 -9 -16
-26z"/>
<path d="M8960 11735 c0 -14 5 -25 10 -25 6 0 10 11 10 25 0 14 -4 25 -10 25
-5 0 -10 -11 -10 -25z"/>
<path d="M3118 11744 c-5 -4 -8 -19 -8 -33 0 -18 3 -22 11 -14 6 6 9 21 7 33
-1 12 -6 18 -10 14z"/>
<path d="M1238 11734 c-5 -4 -8 -19 -8 -33 0 -18 3 -22 11 -14 6 6 9 21 7 33
-1 12 -6 18 -10 14z"/>
<path d="M4890 11674 c0 -31 23 -28 28 4 2 15 -2 22 -12 22 -11 0 -16 -9 -16
-26z"/>
<path d="M11447 11683 c-4 -3 -7 -15 -7 -25 0 -26 24 -17 28 10 3 21 -8 29
-21 15z"/>
<path d="M6800 11654 c0 -31 23 -28 28 4 2 15 -2 22 -12 22 -11 0 -16 -9 -16
-26z"/>
<path d="M8960 11635 c0 -14 5 -25 10 -25 6 0 10 11 10 25 0 14 -4 25 -10 25
-5 0 -10 -11 -10 -25z"/>
<path d="M3118 11644 c-5 -4 -8 -19 -8 -33 0 -18 3 -22 11 -14 6 6 9 21 7 33
-1 12 -6 18 -10 14z"/>
<path d="M1238 11634 c-5 -4 -8 -19 -8 -33 0 -18 3 -22 11 -14 6 6 9 21 7 33
-1 12 -6 18 -10 14z"/>
<path d="M4890 11574 c0 -31 23 -28 28 4 2 15 -2 22 -12 22 -11 0 -16 -9 -16
-26z"/>
<path d="M11447 11583 c-4 -3 -7 -15 -7 -25 0 -26 24 -17 28 10 3 21 -8 29
-21 15z"/>
<path d="M6800 11554 c0 -31 23 -28 28 4 2 15 -2 22 -12 22 -11 0 -16 -9 -16
-26z"/>
<path d="M8960 11535 c0 -14 5 -25 10 -25 6 0 10 11 10 25 0 14 -4 25 -10 25
-5 0 -10 -11 -10 -25z"/>
<path d="M3110 11525 c0 -14 5 -25 10 -25 6 0 10 11 10 25 0 14 -4 25 -10 25
-5 0 -10 -11 -10 -25z"/>
<path d="M1238 11534 c-5 -4 -8 -19 -8 -33 0 -18 3 -22 11 -14 6 6 9 21 7 33
-1 12 -6 18 -10 14z"/>
<path d="M4890 11474 c0 -31 23 -28 28 4 2 15 -2 22 -12 22 -11 0 -16 -9 -16
-26z"/>
<path d="M11440 11464 c0 -31 23 -28 28 4 2 15 -2 22 -12 22 -11 0 -16 -9 -16
-26z"/>
<path d="M6800 11454 c0 -31 23 -28 28 4 2 15 -2 22 -12 22 -11 0 -16 -9 -16
-26z"/>
<path d="M8960 11435 c0 -14 5 -25 10 -25 6 0 10 11 10 25 0 14 -4 25 -10 25
-5 0 -10 -11 -10 -25z"/>
<path d="M3110 11425 c0 -14 5 -25 10 -25 6 0 10 11 10 25 0 14 -4 25 -10 25
-5 0 -10 -11 -10 -25z"/>
<path d="M1237 11433 c-11 -10 -8 -43 3 -43 6 0 10 11 10 25 0 26 -2 29 -13
18z"/>
<path d="M4890 11374 c0 -31 23 -28 28 4 2 15 -2 22 -12 22 -11 0 -16 -9 -16
-26z"/>
<path d="M11453 11393 c-15 -6 -17 -53 -3 -53 6 0 13 6 16 14 8 22 1 44 -13
39z"/>
<path d="M6800 11354 c0 -31 23 -28 28 4 2 15 -2 22 -12 22 -11 0 -16 -9 -16
-26z"/>
<path d="M8968 11364 c-5 -4 -8 -19 -8 -33 0 -18 3 -22 11 -14 6 6 9 21 7 33
-1 12 -6 18 -10 14z"/>
<path d="M3110 11325 c0 -14 5 -25 10 -25 6 0 10 11 10 25 0 14 -4 25 -10 25
-5 0 -10 -11 -10 -25z"/>
<path d="M1230 11315 c0 -14 5 -25 10 -25 6 0 10 11 10 25 0 14 -4 25 -10 25
-5 0 -10 -11 -10 -25z"/>
<path d="M4890 11274 c0 -31 23 -28 28 4 2 15 -2 22 -12 22 -11 0 -16 -9 -16
-26z"/>
<path d="M11453 11293 c-15 -6 -17 -53 -3 -53 6 0 13 6 16 14 8 22 1 44 -13
39z"/>
<path d="M6807 11283 c-4 -3 -7 -17 -7 -30 0 -33 24 -24 28 10 3 26 -7 35 -21
20z"/>
<path d="M8968 11264 c-5 -4 -8 -19 -8 -33 0 -18 3 -22 11 -14 6 6 9 21 7 33
-1 12 -6 18 -10 14z"/>
<path d="M3110 11225 c0 -14 5 -25 10 -25 6 0 10 11 10 25 0 14 -4 25 -10 25
-5 0 -10 -11 -10 -25z"/>
<path d="M1230 11215 c0 -14 5 -25 10 -25 6 0 10 11 10 25 0 14 -4 25 -10 25
-5 0 -10 -11 -10 -25z"/>
<path d="M4897 11204 c-4 -4 -7 -18 -7 -31 0 -28 23 -27 28 1 4 20 -11 40 -21
30z"/>
<path d="M11453 11193 c-15 -6 -17 -53 -3 -53 6 0 13 6 16 14 8 22 1 44 -13
39z"/>
<path d="M6807 11183 c-4 -3 -7 -17 -7 -29 0 -17 4 -22 15 -18 8 4 15 17 15
30 0 23 -10 31 -23 17z"/>
<path d="M8968 11164 c-5 -4 -8 -19 -8 -33 0 -18 3 -22 11 -14 6 6 9 21 7 33
-1 12 -6 18 -10 14z"/>
<path d="M3110 11125 c0 -14 5 -25 10 -25 6 0 10 11 10 25 0 14 -4 25 -10 25
-5 0 -10 -11 -10 -25z"/>
<path d="M1230 11115 c0 -14 5 -25 10 -25 6 0 10 11 10 25 0 14 -4 25 -10 25
-5 0 -10 -11 -10 -25z"/>
<path d="M4896 11103 c-3 -3 -6 -17 -6 -29 0 -17 4 -22 15 -18 8 4 15 14 15
24 0 20 -13 33 -24 23z"/>
<path d="M11447 11093 c-4 -3 -7 -17 -7 -30 0 -33 24 -24 28 10 3 26 -7 35
-21 20z"/>
<path d="M6807 11083 c-4 -3 -7 -17 -7 -29 0 -17 4 -22 15 -18 8 4 15 17 15
30 0 23 -10 31 -23 17z"/>
<path d="M8968 11064 c-5 -4 -8 -19 -8 -33 0 -18 3 -22 11 -14 6 6 9 21 7 33
-1 12 -6 18 -10 14z"/>
<path d="M3110 11025 c0 -14 5 -25 10 -25 6 0 10 11 10 25 0 14 -4 25 -10 25
-5 0 -10 -11 -10 -25z"/>
<path d="M1230 11015 c0 -14 5 -25 10 -25 6 0 10 11 10 25 0 14 -4 25 -10 25
-5 0 -10 -11 -10 -25z"/>
<path d="M4896 11003 c-3 -3 -6 -17 -6 -31 0 -21 2 -22 15 -12 8 7 15 18 15
26 0 15 -15 26 -24 17z"/>
<path d="M11444 10985 c-8 -20 3 -48 16 -40 13 8 13 55 0 55 -6 0 -13 -7 -16
-15z"/>
<path d="M6807 10983 c-4 -3 -7 -17 -7 -29 0 -17 4 -22 15 -18 8 4 15 17 15
30 0 23 -10 31 -23 17z"/>
<path d="M8968 10964 c-5 -4 -8 -19 -8 -33 0 -18 3 -22 11 -14 6 6 9 21 7 33
-1 12 -6 18 -10 14z"/>
<path d="M3118 10954 c-5 -4 -8 -19 -8 -33 0 -18 3 -22 11 -14 6 6 9 21 7 33
-1 12 -6 18 -10 14z"/>
<path d="M1230 10915 c0 -14 5 -25 10 -25 6 0 10 11 10 25 0 14 -4 25 -10 25
-5 0 -10 -11 -10 -25z"/>
<path d="M4896 10903 c-3 -3 -6 -17 -6 -31 0 -21 2 -22 15 -12 8 7 15 18 15
26 0 15 -15 26 -24 17z"/>
<path d="M11447 10893 c-13 -12 -7 -43 8 -43 9 0 15 9 15 25 0 24 -10 32 -23
18z"/>
<path d="M6807 10883 c-4 -3 -7 -17 -7 -29 0 -17 4 -22 15 -18 8 4 15 17 15
30 0 23 -10 31 -23 17z"/>
<path d="M8968 10864 c-5 -4 -8 -19 -8 -33 0 -18 3 -22 11 -14 6 6 9 21 7 33
-1 12 -6 18 -10 14z"/>
<path d="M3118 10854 c-5 -4 -8 -19 -8 -33 0 -18 3 -22 11 -14 6 6 9 21 7 33
-1 12 -6 18 -10 14z"/>
<path d="M1237 10843 c-11 -10 -8 -53 3 -53 6 0 10 14 10 30 0 31 -2 35 -13
23z"/>
<path d="M4896 10803 c-3 -3 -6 -17 -6 -31 0 -21 2 -22 15 -12 8 7 15 18 15
26 0 15 -15 26 -24 17z"/>
<path d="M11447 10793 c-13 -12 -7 -43 8 -43 9 0 15 9 15 25 0 24 -10 32 -23
18z"/>
<path d="M6807 10783 c-4 -3 -7 -15 -7 -25 0 -26 24 -17 28 10 3 21 -8 29 -21
15z"/>
<path d="M8960 10739 c0 -17 4 -28 10 -24 6 3 10 17 10 31 0 13 -4 24 -10 24
-5 0 -10 -14 -10 -31z"/>
<path d="M3118 10754 c-5 -4 -8 -19 -8 -33 0 -18 3 -22 11 -14 6 6 9 21 7 33
-1 12 -6 18 -10 14z"/>
<path d="M1238 10744 c-5 -4 -8 -19 -8 -33 0 -18 3 -22 11 -14 6 6 9 21 7 33
-1 12 -6 18 -10 14z"/>
<path d="M4897 10703 c-4 -3 -7 -17 -7 -31 0 -21 2 -22 15 -12 8 7 15 21 15
31 0 19 -11 25 -23 12z"/>
<path d="M11447 10693 c-13 -12 -7 -43 8 -43 9 0 15 9 15 25 0 24 -10 32 -23
18z"/>
<path d="M6807 10683 c-4 -3 -7 -15 -7 -25 0 -26 24 -17 28 10 3 21 -8 29 -21
15z"/>
<path d="M8960 10645 c0 -14 5 -25 10 -25 6 0 10 11 10 25 0 14 -4 25 -10 25
-5 0 -10 -11 -10 -25z"/>
<path d="M3118 10654 c-5 -4 -8 -19 -8 -33 0 -18 3 -22 11 -14 6 6 9 21 7 33
-1 12 -6 18 -10 14z"/>
<path d="M1238 10644 c-5 -4 -8 -19 -8 -33 0 -18 3 -22 11 -14 6 6 9 21 7 33
-1 12 -6 18 -10 14z"/>
<path d="M4897 10603 c-4 -3 -7 -15 -7 -25 0 -26 24 -17 28 10 3 21 -8 29 -21
15z"/>
<path d="M11447 10593 c-13 -12 -7 -43 8 -43 9 0 15 9 15 25 0 24 -10 32 -23
18z"/>
<path d="M6800 10564 c0 -31 23 -28 28 4 2 15 -2 22 -12 22 -11 0 -16 -9 -16
-26z"/>
<path d="M8960 10545 c0 -14 5 -25 10 -25 6 0 10 11 10 25 0 14 -4 25 -10 25
-5 0 -10 -11 -10 -25z"/>
<path d="M3118 10554 c-5 -4 -8 -19 -8 -33 0 -18 3 -22 11 -14 6 6 9 21 7 33
-1 12 -6 18 -10 14z"/>
<path d="M1238 10544 c-5 -4 -8 -19 -8 -33 0 -18 3 -22 11 -14 6 6 9 21 7 33
-1 12 -6 18 -10 14z"/>
<path d="M4890 10484 c0 -31 23 -28 28 4 2 15 -2 22 -12 22 -11 0 -16 -9 -16
-26z"/>
<path d="M11447 10493 c-4 -3 -7 -15 -7 -25 0 -26 24 -17 28 10 3 21 -8 29
-21 15z"/>
<path d="M6800 10464 c0 -31 23 -28 28 4 2 15 -2 22 -12 22 -11 0 -16 -9 -16
-26z"/>
<path d="M8960 10445 c0 -14 5 -25 10 -25 6 0 10 11 10 25 0 14 -4 25 -10 25
-5 0 -10 -11 -10 -25z"/>
<path d="M3118 10454 c-5 -4 -8 -19 -8 -33 0 -18 3 -22 11 -14 6 6 9 21 7 33
-1 12 -6 18 -10 14z"/>
<path d="M1238 10444 c-5 -4 -8 -19 -8 -33 0 -18 3 -22 11 -14 6 6 9 21 7 33
-1 12 -6 18 -10 14z"/>
<path d="M4890 10384 c0 -31 23 -28 28 4 2 15 -2 22 -12 22 -11 0 -16 -9 -16
-26z"/>
<path d="M11447 10393 c-4 -3 -7 -15 -7 -25 0 -26 24 -17 28 10 3 21 -8 29
-21 15z"/>
<path d="M6800 10364 c0 -31 23 -28 28 4 2 15 -2 22 -12 22 -11 0 -16 -9 -16
-26z"/>
<path d="M8960 10345 c0 -14 5 -25 10 -25 6 0 10 11 10 25 0 14 -4 25 -10 25
-5 0 -10 -11 -10 -25z"/>
<path d="M3110 10329 c0 -17 4 -28 10 -24 6 3 10 17 10 31 0 13 -4 24 -10 24
-5 0 -10 -14 -10 -31z"/>
<path d="M1238 10344 c-5 -4 -8 -19 -8 -33 0 -18 3 -22 11 -14 6 6 9 21 7 33
-1 12 -6 18 -10 14z"/>
<path d="M4890 10284 c0 -31 23 -28 28 4 2 15 -2 22 -12 22 -11 0 -16 -9 -16
-26z"/>
<path d="M11440 10274 c0 -31 23 -28 28 4 2 15 -2 22 -12 22 -11 0 -16 -9 -16
-26z"/>
<path d="M6800 10264 c0 -31 23 -28 28 4 2 15 -2 22 -12 22 -11 0 -16 -9 -16
-26z"/>
<path d="M8960 10245 c0 -14 5 -25 10 -25 6 0 10 11 10 25 0 14 -4 25 -10 25
-5 0 -10 -11 -10 -25z"/>
<path d="M3110 10235 c0 -14 5 -25 10 -25 6 0 10 11 10 25 0 14 -4 25 -10 25
-5 0 -10 -11 -10 -25z"/>
<path d="M1237 10243 c-11 -10 -8 -43 3 -43 6 0 10 11 10 25 0 26 -2 29 -13
18z"/>
<path d="M4890 10184 c0 -31 23 -28 28 4 2 15 -2 22 -12 22 -11 0 -16 -9 -16
-26z"/>
<path d="M11453 10203 c-15 -6 -17 -53 -3 -53 6 0 13 6 16 14 8 22 1 44 -13
39z"/>
<path d="M6800 10164 c0 -31 23 -28 28 4 2 15 -2 22 -12 22 -11 0 -16 -9 -16
-26z"/>
<path d="M8968 10174 c-5 -4 -8 -19 -8 -33 0 -18 3 -22 11 -14 6 6 9 21 7 33
-1 12 -6 18 -10 14z"/>
<path d="M3110 10135 c0 -14 5 -25 10 -25 6 0 10 11 10 25 0 14 -4 25 -10 25
-5 0 -10 -11 -10 -25z"/>
<path d="M1230 10125 c0 -14 5 -25 10 -25 6 0 10 11 10 25 0 14 -4 25 -10 25
-5 0 -10 -11 -10 -25z"/>
<path d="M4890 10084 c0 -31 23 -28 28 4 2 15 -2 22 -12 22 -11 0 -16 -9 -16
-26z"/>
<path d="M11453 10103 c-15 -6 -17 -53 -3 -53 6 0 13 6 16 14 8 22 1 44 -13
39z"/>
<path d="M6807 10093 c-4 -3 -7 -17 -7 -30 0 -33 24 -24 28 10 3 26 -7 35 -21
20z"/>
<path d="M8968 10074 c-5 -4 -8 -19 -8 -33 0 -18 3 -22 11 -14 6 6 9 21 7 33
-1 12 -6 18 -10 14z"/>
<path d="M3110 10035 c0 -14 5 -25 10 -25 6 0 10 11 10 25 0 14 -4 25 -10 25
-5 0 -10 -11 -10 -25z"/>
<path d="M1230 10025 c0 -14 5 -25 10 -25 6 0 10 11 10 25 0 14 -4 25 -10 25
-5 0 -10 -11 -10 -25z"/>
<path d="M4897 10014 c-4 -4 -7 -18 -7 -31 0 -28 23 -27 28 1 4 20 -11 40 -21
30z"/>
<path d="M11453 10003 c-15 -6 -17 -53 -3 -53 6 0 13 6 16 14 8 22 1 44 -13
39z"/>
<path d="M6807 9993 c-4 -3 -7 -17 -7 -29 0 -17 4 -22 15 -18 8 4 15 17 15 30
0 23 -10 31 -23 17z"/>
<path d="M8968 9974 c-5 -4 -8 -19 -8 -33 0 -18 3 -22 11 -14 6 6 9 21 7 33
-1 12 -6 18 -10 14z"/>
<path d="M3110 9935 c0 -14 5 -25 10 -25 6 0 10 11 10 25 0 14 -4 25 -10 25
-5 0 -10 -11 -10 -25z"/>
<path d="M1230 9925 c0 -14 5 -25 10 -25 6 0 10 11 10 25 0 14 -4 25 -10 25
-5 0 -10 -11 -10 -25z"/>
<path d="M4896 9913 c-3 -3 -6 -17 -6 -29 0 -17 4 -22 15 -18 8 4 15 14 15 24
0 20 -13 33 -24 23z"/>
<path d="M11447 9903 c-4 -3 -7 -17 -7 -30 0 -33 24 -24 28 10 3 26 -7 35 -21
20z"/>
<path d="M6807 9893 c-4 -3 -7 -17 -7 -29 0 -17 4 -22 15 -18 8 4 15 17 15 30
0 23 -10 31 -23 17z"/>
<path d="M8968 9874 c-5 -4 -8 -19 -8 -33 0 -18 3 -22 11 -14 6 6 9 21 7 33
-1 12 -6 18 -10 14z"/>
<path d="M3110 9835 c0 -14 5 -25 10 -25 6 0 10 11 10 25 0 14 -4 25 -10 25
-5 0 -10 -11 -10 -25z"/>
<path d="M1230 9825 c0 -14 5 -25 10 -25 6 0 10 11 10 25 0 14 -4 25 -10 25
-5 0 -10 -11 -10 -25z"/>
<path d="M4896 9813 c-3 -3 -6 -17 -6 -31 0 -21 2 -22 15 -12 8 7 15 18 15 26
0 15 -15 26 -24 17z"/>
<path d="M11447 9803 c-4 -3 -7 -17 -7 -30 0 -33 24 -24 28 10 3 26 -7 35 -21
20z"/>
<path d="M6807 9793 c-4 -3 -7 -17 -7 -29 0 -17 4 -22 15 -18 8 4 15 17 15 30
0 23 -10 31 -23 17z"/>
<path d="M8968 9774 c-5 -4 -8 -19 -8 -33 0 -18 3 -22 11 -14 6 6 9 21 7 33
-1 12 -6 18 -10 14z"/>
<path d="M3118 9764 c-5 -4 -8 -19 -8 -33 0 -18 3 -22 11 -14 6 6 9 21 7 33
-1 12 -6 18 -10 14z"/>
<path d="M1230 9725 c0 -14 5 -25 10 -25 6 0 10 11 10 25 0 14 -4 25 -10 25
-5 0 -10 -11 -10 -25z"/>
<path d="M4896 9713 c-3 -3 -6 -17 -6 -31 0 -21 2 -22 15 -12 8 7 15 18 15 26
0 15 -15 26 -24 17z"/>
<path d="M11447 9703 c-13 -12 -7 -43 8 -43 9 0 15 9 15 25 0 24 -10 32 -23
18z"/>
<path d="M6807 9693 c-4 -3 -7 -17 -7 -29 0 -17 4 -22 15 -18 8 4 15 17 15 30
0 23 -10 31 -23 17z"/>
<path d="M8968 9674 c-5 -4 -8 -19 -8 -33 0 -18 3 -22 11 -14 6 6 9 21 7 33
-1 12 -6 18 -10 14z"/>
<path d="M3118 9664 c-5 -4 -8 -19 -8 -33 0 -18 3 -22 11 -14 6 6 9 21 7 33
-1 12 -6 18 -10 14z"/>
<path d="M1237 9653 c-11 -10 -8 -53 3 -53 6 0 10 14 10 30 0 31 -2 35 -13 23z"/>
<path d="M4896 9613 c-3 -3 -6 -17 -6 -31 0 -21 2 -22 15 -12 8 7 15 18 15 26
0 15 -15 26 -24 17z"/>
<path d="M11447 9603 c-13 -12 -7 -43 8 -43 9 0 15 9 15 25 0 24 -10 32 -23
18z"/>
<path d="M6807 9593 c-4 -3 -7 -15 -7 -25 0 -26 24 -17 28 10 3 21 -8 29 -21
15z"/>
<path d="M8960 9549 c0 -17 4 -28 10 -24 6 3 10 17 10 31 0 13 -4 24 -10 24
-5 0 -10 -14 -10 -31z"/>
<path d="M3118 9564 c-5 -4 -8 -19 -8 -33 0 -18 3 -22 11 -14 6 6 9 21 7 33
-1 12 -6 18 -10 14z"/>
<path d="M1238 9554 c-5 -4 -8 -19 -8 -33 0 -18 3 -22 11 -14 6 6 9 21 7 33
-1 12 -6 18 -10 14z"/>
<path d="M4897 9513 c-4 -3 -7 -17 -7 -31 0 -21 2 -22 15 -12 8 7 15 21 15 31
0 19 -11 25 -23 12z"/>
<path d="M11447 9503 c-13 -12 -7 -43 8 -43 9 0 15 9 15 25 0 24 -10 32 -23
18z"/>
<path d="M6807 9493 c-4 -3 -7 -15 -7 -25 0 -26 24 -17 28 10 3 21 -8 29 -21
15z"/>
<path d="M8960 9455 c0 -14 5 -25 10 -25 6 0 10 11 10 25 0 14 -4 25 -10 25
-5 0 -10 -11 -10 -25z"/>
<path d="M3118 9464 c-5 -4 -8 -19 -8 -33 0 -18 3 -22 11 -14 6 6 9 21 7 33
-1 12 -6 18 -10 14z"/>
<path d="M1238 9454 c-5 -4 -8 -19 -8 -33 0 -18 3 -22 11 -14 6 6 9 21 7 33
-1 12 -6 18 -10 14z"/>
<path d="M4897 9413 c-4 -3 -7 -15 -7 -25 0 -26 24 -17 28 10 3 21 -8 29 -21
15z"/>
<path d="M11447 9403 c-13 -12 -7 -43 8 -43 9 0 15 9 15 25 0 24 -10 32 -23
18z"/>
<path d="M6800 9374 c0 -31 23 -28 28 4 2 15 -2 22 -12 22 -11 0 -16 -9 -16
-26z"/>
<path d="M8960 9355 c0 -14 5 -25 10 -25 6 0 10 11 10 25 0 14 -4 25 -10 25
-5 0 -10 -11 -10 -25z"/>
<path d="M3118 9364 c-5 -4 -8 -19 -8 -33 0 -18 3 -22 11 -14 6 6 9 21 7 33
-1 12 -6 18 -10 14z"/>
<path d="M1238 9354 c-5 -4 -8 -19 -8 -33 0 -18 3 -22 11 -14 6 6 9 21 7 33
-1 12 -6 18 -10 14z"/>
<path d="M4890 9294 c0 -31 23 -28 28 4 2 15 -2 22 -12 22 -11 0 -16 -9 -16
-26z"/>
<path d="M11447 9303 c-4 -3 -7 -15 -7 -25 0 -26 24 -17 28 10 3 21 -8 29 -21
15z"/>
<path d="M6800 9274 c0 -31 23 -28 28 4 2 15 -2 22 -12 22 -11 0 -16 -9 -16
-26z"/>
<path d="M8960 9255 c0 -14 5 -25 10 -25 6 0 10 11 10 25 0 14 -4 25 -10 25
-5 0 -10 -11 -10 -25z"/>
<path d="M3118 9264 c-5 -4 -8 -19 -8 -33 0 -18 3 -22 11 -14 6 6 9 21 7 33
-1 12 -6 18 -10 14z"/>
<path d="M1238 9254 c-5 -4 -8 -19 -8 -33 0 -18 3 -22 11 -14 6 6 9 21 7 33
-1 12 -6 18 -10 14z"/>
<path d="M4890 9194 c0 -31 23 -28 28 4 2 15 -2 22 -12 22 -11 0 -16 -9 -16
-26z"/>
<path d="M11447 9203 c-4 -3 -7 -15 -7 -25 0 -26 24 -17 28 10 3 21 -8 29 -21
15z"/>
<path d="M6800 9174 c0 -31 23 -28 28 4 2 15 -2 22 -12 22 -11 0 -16 -9 -16
-26z"/>
<path d="M8960 9155 c0 -14 5 -25 10 -25 6 0 10 11 10 25 0 14 -4 25 -10 25
-5 0 -10 -11 -10 -25z"/>
<path d="M3110 9139 c0 -17 4 -28 10 -24 6 3 10 17 10 31 0 13 -4 24 -10 24
-5 0 -10 -14 -10 -31z"/>
<path d="M1238 9154 c-5 -4 -8 -19 -8 -33 0 -18 3 -22 11 -14 6 6 9 21 7 33
-1 12 -6 18 -10 14z"/>
<path d="M4890 9094 c0 -31 23 -28 28 4 2 15 -2 22 -12 22 -11 0 -16 -9 -16
-26z"/>
<path d="M11440 9084 c0 -31 23 -28 28 4 2 15 -2 22 -12 22 -11 0 -16 -9 -16
-26z"/>
<path d="M6800 9074 c0 -31 23 -28 28 4 2 15 -2 22 -12 22 -11 0 -16 -9 -16
-26z"/>
<path d="M8960 9055 c0 -14 5 -25 10 -25 6 0 10 11 10 25 0 14 -4 25 -10 25
-5 0 -10 -11 -10 -25z"/>
<path d="M3110 9045 c0 -14 5 -25 10 -25 6 0 10 11 10 25 0 14 -4 25 -10 25
-5 0 -10 -11 -10 -25z"/>
<path d="M1237 9053 c-11 -10 -8 -43 3 -43 6 0 10 11 10 25 0 26 -2 29 -13 18z"/>
<path d="M4890 8994 c0 -31 23 -28 28 4 2 15 -2 22 -12 22 -11 0 -16 -9 -16
-26z"/>
<path d="M11453 9013 c-15 -6 -17 -53 -3 -53 6 0 13 6 16 14 8 22 1 44 -13 39z"/>
<path d="M6800 8974 c0 -31 23 -28 28 4 2 15 -2 22 -12 22 -11 0 -16 -9 -16
-26z"/>
<path d="M8968 8984 c-5 -4 -8 -19 -8 -33 0 -18 3 -22 11 -14 6 6 9 21 7 33
-1 12 -6 18 -10 14z"/>
<path d="M3110 8945 c0 -14 5 -25 10 -25 6 0 10 11 10 25 0 14 -4 25 -10 25
-5 0 -10 -11 -10 -25z"/>
<path d="M1230 8935 c0 -14 5 -25 10 -25 6 0 10 11 10 25 0 14 -4 25 -10 25
-5 0 -10 -11 -10 -25z"/>
<path d="M4890 8894 c0 -31 23 -28 28 4 2 15 -2 22 -12 22 -11 0 -16 -9 -16
-26z"/>
<path d="M11453 8913 c-15 -6 -17 -53 -3 -53 6 0 13 6 16 14 8 22 1 44 -13 39z"/>
<path d="M6807 8903 c-4 -3 -7 -17 -7 -30 0 -33 24 -24 28 10 3 26 -7 35 -21
20z"/>
<path d="M8968 8884 c-5 -4 -8 -19 -8 -33 0 -18 3 -22 11 -14 6 6 9 21 7 33
-1 12 -6 18 -10 14z"/>
<path d="M3110 8845 c0 -14 5 -25 10 -25 6 0 10 11 10 25 0 14 -4 25 -10 25
-5 0 -10 -11 -10 -25z"/>
<path d="M1230 8835 c0 -14 5 -25 10 -25 6 0 10 11 10 25 0 14 -4 25 -10 25
-5 0 -10 -11 -10 -25z"/>
<path d="M4897 8824 c-4 -4 -7 -18 -7 -31 0 -28 23 -27 28 1 4 20 -11 40 -21
30z"/>
<path d="M11453 8813 c-15 -6 -17 -53 -3 -53 6 0 13 6 16 14 8 22 1 44 -13 39z"/>
<path d="M1463 8790 c-49 -32 -109 -113 -153 -207 -22 -46 -40 -88 -40 -93 0
-5 -9 -15 -20 -22 -14 -9 -20 -24 -21 -48 0 -28 -5 -18 -23 45 -40 149 -97
214 -207 237 -139 29 -208 -46 -168 -183 16 -53 62 -105 133 -151 34 -22 52
-37 41 -34 -126 34 -283 53 -313 37 -35 -19 -26 -101 11 -101 5 0 6 13 2 29
-8 39 13 45 129 36 156 -12 299 -45 290 -68 -3 -10 5 -12 31 -9 l35 4 0 -71
c0 -39 -4 -71 -8 -71 -4 0 -28 20 -52 45 -24 25 -48 45 -52 45 -4 0 -15 -12
-24 -26 l-17 -25 76 -77 77 -77 0 -113 c0 -61 -3 -112 -7 -112 -4 0 -29 21
-55 47 -48 47 -49 47 -76 33 -25 -14 -27 -21 -30 -85 l-3 -69 -84 84 -85 85 0
107 0 108 -35 0 -35 0 0 -70 c0 -38 -4 -70 -8 -70 -4 0 -28 20 -52 45 -50 51
-59 53 -85 25 -18 -20 -18 -22 35 -75 l54 -55 -72 0 -72 0 0 -35 0 -35 106 0
106 0 90 -82 91 -83 -78 -5 c-75 -5 -79 -6 -88 -33 -8 -26 -5 -33 37 -76 25
-26 46 -49 46 -51 0 -3 -53 -4 -117 -2 l-118 3 -76 75 -76 76 -22 -28 -22 -28
47 -47 47 -48 -69 -3 -69 -3 -3 -32 -3 -33 70 0 c39 0 71 -3 71 -7 0 -4 -21
-29 -47 -55 l-47 -48 25 -26 26 -26 73 81 74 81 118 0 c65 0 118 -3 118 -7 0
-4 -21 -29 -47 -55 -47 -48 -47 -49 -33 -76 14 -25 21 -27 85 -30 l69 -3 -84
-84 -85 -85 -108 0 -108 0 3 -32 3 -33 75 -5 74 -5 -59 -52 -59 -53 24 -25 23
-24 56 51 56 51 3 -66 3 -67 34 0 35 0 0 103 0 102 85 85 85 85 0 -72 c0 -69
1 -71 31 -83 29 -13 32 -11 77 34 26 25 51 46 55 46 4 0 7 -54 7 -119 l0 -120
-75 -68 c-41 -37 -75 -73 -75 -79 0 -6 9 -19 20 -29 20 -18 22 -18 75 35 l55
54 0 -77 0 -77 35 0 35 0 0 72 0 72 50 -49 c48 -48 50 -48 70 -30 11 10 20 23
20 29 0 6 -31 43 -70 81 l-70 69 0 120 0 120 49 -48 c48 -47 51 -49 80 -36 30
12 31 14 31 81 0 38 3 69 8 69 4 0 43 -35 86 -79 l78 -78 5 -107 6 -106 28 0
29 0 0 72 0 72 55 -54 55 -54 21 21 22 21 -48 56 -47 56 71 0 71 0 0 35 0 35
-107 0 -108 0 -82 81 c-46 45 -83 82 -83 83 0 0 30 0 66 -1 63 -1 66 0 84 29
l19 31 -50 56 -50 56 118 3 118 3 77 -79 77 -80 22 24 23 24 -47 48 c-26 26
-47 51 -47 55 0 4 32 7 70 7 l70 0 0 36 0 36 -70 -4 c-39 -2 -70 -1 -70 2 0 2
21 26 47 52 l47 48 -25 26 -26 26 -68 -76 -67 -75 -124 -3 c-68 -2 -124 -1
-124 2 0 3 22 28 49 54 49 48 50 50 35 78 -14 27 -18 28 -87 28 l-72 0 90 90
90 90 102 0 103 0 0 30 0 30 -70 0 c-38 0 -70 3 -70 8 0 4 23 27 51 51 l50 43
-22 24 c-12 13 -26 24 -30 24 -4 0 -29 -20 -55 -45 -25 -25 -48 -45 -50 -45
-2 0 -4 32 -4 70 l0 70 -35 0 -35 0 0 -107 0 -108 -76 -82 c-42 -46 -80 -83
-85 -83 -5 0 -9 31 -9 69 0 67 -1 69 -31 81 -29 13 -32 11 -80 -36 l-49 -48 0
119 0 120 75 75 76 76 -27 24 -26 25 -49 -54 -49 -55 0 78 0 78 30 -4 c24 -4
30 -1 30 14 0 11 7 18 18 18 34 0 167 39 272 80 113 44 170 81 170 108 0 27
-29 62 -51 62 -23 0 -24 -8 -3 -32 23 -25 10 -39 -90 -92 -75 -41 -254 -111
-262 -103 -2 2 18 18 44 35 82 53 196 181 221 246 29 78 28 147 -2 182 -20 23
-34 28 -83 31 -48 3 -65 0 -91 -17z m125 -53 c22 -17 14 -98 -18 -164 -36 -78
-99 -146 -196 -213 l-74 -51 -25 28 c-13 15 -25 32 -25 36 -1 24 126 249 164
293 69 78 132 104 174 71z m-563 -105 c83 -40 109 -74 154 -198 l22 -61 -32
-33 -33 -32 -30 17 c-52 30 -159 112 -194 148 -56 58 -52 144 8 174 27 13 57
9 105 -15z m285 -1046 l-50 -51 0 70 c0 69 0 69 48 118 l47 48 3 -67 3 -68
-51 -50z m-162 131 c41 -42 42 -44 42 -112 l0 -69 -50 49 c-49 49 -50 50 -50
112 0 35 4 63 8 63 4 0 27 -19 50 -43z m-67 -179 c27 -22 49 -44 49 -47 0 -3
-31 -5 -69 -3 -66 3 -70 5 -112 48 l-43 44 63 0 c59 0 65 -2 112 -42z m416 -3
c-45 -41 -50 -44 -117 -47 -39 -2 -70 -2 -70 -1 0 1 21 22 48 47 47 45 48 46
117 45 l70 0 -48 -44z m-367 -122 c0 -4 -21 -29 -47 -55 -46 -47 -48 -48 -110
-48 -35 0 -63 3 -63 7 0 4 21 29 47 55 46 47 48 48 110 48 35 0 63 -3 63 -7z
m362 -40 c26 -26 48 -51 48 -55 0 -4 -31 -8 -68 -8 -73 0 -74 1 -146 88 l-19
22 69 0 c68 0 68 0 116 -47z m-302 -74 l0 -70 -50 -52 -50 -52 0 68 c0 67 1
69 47 123 26 30 48 54 50 54 2 0 3 -32 3 -71z m170 -98 l0 -75 -50 49 -50 49
0 75 0 75 50 -49 50 -49 0 -75z"/>
<path d="M6807 8803 c-4 -3 -7 -17 -7 -29 0 -17 4 -22 15 -18 8 4 15 17 15 30
0 23 -10 31 -23 17z"/>
<path d="M8968 8784 c-5 -4 -8 -19 -8 -33 0 -18 3 -22 11 -14 6 6 9 21 7 33
-1 12 -6 18 -10 14z"/>
<path d="M3110 8745 c0 -14 5 -25 10 -25 6 0 10 11 10 25 0 14 -4 25 -10 25
-5 0 -10 -11 -10 -25z"/>
<path d="M1230 8735 c0 -14 5 -25 10 -25 6 0 10 11 10 25 0 14 -4 25 -10 25
-5 0 -10 -11 -10 -25z"/>
<path d="M4896 8723 c-3 -3 -6 -17 -6 -29 0 -17 4 -22 15 -18 8 4 15 14 15 24
0 20 -13 33 -24 23z"/>
<path d="M11447 8713 c-4 -3 -7 -17 -7 -30 0 -33 24 -24 28 10 3 26 -7 35 -21
20z"/>
<path d="M6807 8703 c-4 -3 -7 -17 -7 -29 0 -17 4 -22 15 -18 8 4 15 17 15 30
0 23 -10 31 -23 17z"/>
<path d="M8968 8684 c-5 -4 -8 -19 -8 -33 0 -18 3 -22 11 -14 6 6 9 21 7 33
-1 12 -6 18 -10 14z"/>
<path d="M11653 8671 c-45 -28 -108 -115 -148 -207 -19 -43 -35 -71 -35 -61 0
10 -6 17 -12 15 -17 -6 -23 -39 -9 -47 10 -7 4 -51 -8 -51 -3 0 -14 33 -23 73
-31 126 -100 192 -211 204 -102 10 -152 -46 -127 -145 17 -70 45 -107 113
-152 34 -23 53 -39 42 -36 -54 14 -192 36 -229 36 -23 0 -47 -5 -54 -12 -17
-17 -15 -63 3 -78 16 -13 18 -9 16 26 -2 15 5 23 21 27 56 14 365 -33 353 -53
-3 -4 -28 -11 -57 -14 -29 -4 -91 -22 -138 -39 -373 -141 -580 -538 -484 -927
67 -270 288 -492 564 -567 90 -24 300 -24 390 0 154 41 311 140 407 256 62 76
135 216 160 311 25 89 24 300 0 390 -75 278 -301 501 -573 566 -38 8 -76 18
-84 21 -8 2 26 15 75 28 90 23 213 68 286 105 47 24 60 61 34 90 -10 11 -24
20 -32 20 -17 0 -17 -27 0 -33 28 -10 -13 -44 -114 -94 -89 -45 -209 -89 -209
-78 0 1 15 12 33 23 66 39 165 142 197 204 40 81 42 157 5 193 -31 32 -104 34
-152 6z m108 -41 c25 -14 25 -63 -2 -135 -25 -68 -106 -159 -192 -215 -60 -39
-61 -39 -79 -20 -26 28 -23 51 23 143 52 104 102 172 152 208 43 31 66 35 98
19z m-484 -110 c62 -36 83 -63 116 -155 l25 -70 -29 -28 c-34 -33 -37 -32
-141 45 -126 92 -155 151 -107 212 28 35 70 34 136 -4z"/>
<path d="M3110 8645 c0 -14 5 -25 10 -25 6 0 10 11 10 25 0 14 -4 25 -10 25
-5 0 -10 -11 -10 -25z"/>
<path d="M1230 8635 c0 -14 5 -25 10 -25 6 0 10 11 10 25 0 14 -4 25 -10 25
-5 0 -10 -11 -10 -25z"/>
<path d="M4896 8623 c-3 -3 -6 -17 -6 -29 0 -17 4 -22 15 -18 8 4 15 14 15 24
0 20 -13 33 -24 23z"/>
<path d="M11447 8613 c-4 -3 -7 -17 -7 -30 0 -33 24 -24 28 10 3 26 -7 35 -21
20z"/>
<path d="M6807 8603 c-4 -3 -7 -17 -7 -29 0 -17 4 -22 15 -18 8 4 15 17 15 30
0 23 -10 31 -23 17z"/>
<path d="M8968 8584 c-5 -4 -8 -19 -8 -33 0 -18 3 -22 11 -14 6 6 9 21 7 33
-1 12 -6 18 -10 14z"/>
<path d="M3118 8574 c-5 -4 -8 -19 -8 -33 0 -18 3 -22 11 -14 6 6 9 21 7 33
-1 12 -6 18 -10 14z"/>
<path d="M1230 8535 c0 -14 5 -25 10 -25 6 0 10 11 10 25 0 14 -4 25 -10 25
-5 0 -10 -11 -10 -25z"/>
<path d="M4896 8523 c-3 -3 -6 -17 -6 -31 0 -21 2 -22 15 -12 8 7 15 18 15 26
0 15 -15 26 -24 17z"/>
<path d="M11447 8513 c-13 -12 -7 -43 8 -43 9 0 15 9 15 25 0 24 -10 32 -23
18z"/>
<path d="M6807 8503 c-4 -3 -7 -17 -7 -29 0 -17 4 -22 15 -18 8 4 15 17 15 30
0 23 -10 31 -23 17z"/>
<path d="M8968 8484 c-5 -4 -8 -19 -8 -33 0 -18 3 -22 11 -14 6 6 9 21 7 33
-1 12 -6 18 -10 14z"/>
<path d="M3118 8474 c-5 -4 -8 -19 -8 -33 0 -18 3 -22 11 -14 6 6 9 21 7 33
-1 12 -6 18 -10 14z"/>
<path d="M4896 8423 c-3 -3 -6 -17 -6 -31 0 -21 2 -22 15 -12 8 7 15 18 15 26
0 15 -15 26 -24 17z"/>
<path d="M6807 8403 c-4 -3 -7 -15 -7 -25 0 -26 24 -17 28 10 3 21 -8 29 -21
15z"/>
<path d="M8960 8359 c0 -17 4 -28 10 -24 6 3 10 17 10 31 0 13 -4 24 -10 24
-5 0 -10 -14 -10 -31z"/>
<path d="M3118 8374 c-5 -4 -8 -19 -8 -33 0 -18 3 -22 11 -14 6 6 9 21 7 33
-1 12 -6 18 -10 14z"/>
<path d="M4897 8323 c-4 -3 -7 -17 -7 -31 0 -21 2 -22 15 -12 8 7 15 21 15 31
0 19 -11 25 -23 12z"/>
<path d="M6807 8303 c-4 -3 -7 -15 -7 -25 0 -26 24 -17 28 10 3 21 -8 29 -21
15z"/>
<path d="M8960 8265 c0 -14 5 -25 10 -25 6 0 10 11 10 25 0 14 -4 25 -10 25
-5 0 -10 -11 -10 -25z"/>
<path d="M3118 8274 c-5 -4 -8 -19 -8 -33 0 -18 3 -22 11 -14 6 6 9 21 7 33
-1 12 -6 18 -10 14z"/>
<path d="M4897 8223 c-4 -3 -7 -15 -7 -25 0 -26 24 -17 28 10 3 21 -8 29 -21
15z"/>
<path d="M6800 8184 c0 -31 23 -28 28 4 2 15 -2 22 -12 22 -11 0 -16 -9 -16
-26z"/>
<path d="M8960 8165 c0 -14 5 -25 10 -25 6 0 10 11 10 25 0 14 -4 25 -10 25
-5 0 -10 -11 -10 -25z"/>
<path d="M3118 8174 c-5 -4 -8 -19 -8 -33 0 -18 3 -22 11 -14 6 6 9 21 7 33
-1 12 -6 18 -10 14z"/>
<path d="M4890 8104 c0 -31 23 -28 28 4 2 15 -2 22 -12 22 -11 0 -16 -9 -16
-26z"/>
<path d="M6800 8084 c0 -31 23 -28 28 4 2 15 -2 22 -12 22 -11 0 -16 -9 -16
-26z"/>
<path d="M9143 8089 c-43 -28 -102 -118 -143 -219 -34 -85 -41 -87 -55 -20
-16 76 -70 147 -128 169 -16 6 -50 11 -76 11 -38 0 -52 -5 -72 -26 -52 -55
-17 -168 71 -225 27 -18 49 -33 47 -35 -1 -1 -36 4 -77 12 -41 8 -97 13 -125
12 -50 -3 -50 -3 -50 -37 0 -20 6 -36 13 -39 9 -3 13 3 10 19 -3 24 -3 24 97
23 100 -1 217 -24 223 -44 2 -5 15 -10 28 -10 23 0 24 -3 24 -57 l0 -57 -40
39 c-39 38 -40 38 -60 20 -21 -19 -21 -19 40 -80 l60 -61 0 -88 0 -88 -44 35
c-41 34 -44 35 -65 20 -19 -13 -22 -23 -19 -64 1 -27 1 -49 -2 -49 -3 0 -34
28 -68 63 l-62 63 0 87 0 87 -30 0 c-30 0 -30 0 -30 -57 l0 -57 -40 39 c-39
38 -40 38 -60 20 l-21 -19 43 -43 42 -43 -57 0 c-54 0 -57 -1 -57 -25 0 -25 1
-25 83 -25 l83 0 69 -70 69 -70 -61 0 c-57 0 -61 -2 -67 -25 -5 -20 0 -31 29
-56 19 -17 35 -34 35 -38 0 -3 -41 -5 -91 -4 l-92 1 -58 58 c-58 57 -59 57
-79 39 l-21 -19 41 -41 40 -41 -57 0 c-55 1 -58 0 -58 -24 0 -24 4 -25 59 -28
l59 -3 -42 -43 c-40 -41 -41 -43 -23 -59 17 -16 21 -13 77 43 l59 60 94 0 94
0 -36 -40 c-40 -45 -40 -44 -26 -71 9 -15 22 -19 68 -19 l56 0 -64 -65 -64
-65 -89 0 -88 0 3 -27 c3 -27 6 -28 56 -28 28 0 52 -2 52 -5 0 -2 -18 -23 -40
-45 -39 -39 -40 -42 -23 -58 17 -15 21 -13 60 24 l42 39 3 -52 c3 -49 5 -53
28 -53 24 0 25 2 28 81 l3 80 64 64 65 64 0 -52 c0 -46 3 -54 25 -64 23 -10
29 -8 65 27 l40 39 0 -94 0 -94 -57 -58 c-54 -55 -56 -59 -40 -75 16 -16 19
-15 56 21 l40 39 3 -59 c3 -56 4 -59 31 -62 27 -3 27 -3 27 54 l0 58 38 -37
38 -38 19 21 c18 20 18 21 -38 78 l-57 58 0 94 0 94 40 -39 c36 -35 42 -37 65
-27 22 10 25 17 25 66 l0 54 65 -67 64 -67 3 -79 c3 -78 4 -80 28 -80 23 0 25
4 30 54 l5 53 34 -42 34 -42 20 21 21 21 -37 38 c-20 21 -37 40 -37 42 0 3 24
5 52 5 50 0 53 1 56 28 l3 27 -88 0 -89 0 -64 65 -64 65 56 0 c46 0 59 4 68
19 14 27 14 26 -26 71 l-36 40 94 0 95 0 58 -60 c55 -59 58 -60 76 -44 19 17
19 19 -22 60 l-42 43 59 3 c55 3 59 4 59 28 0 24 -3 25 -58 25 -31 0 -57 1
-57 3 0 1 18 19 41 39 l40 36 -20 21 -21 20 -58 -57 -59 -58 -91 -2 c-51 -1
-92 0 -92 3 0 2 16 21 36 41 31 32 34 40 25 58 -10 18 -21 21 -69 21 l-56 0
69 70 69 70 83 0 c82 0 83 0 83 25 0 24 -3 25 -55 25 -30 0 -55 4 -55 8 0 5
16 22 35 39 39 35 42 45 20 63 -13 11 -22 7 -53 -23 -21 -21 -41 -37 -45 -37
-4 0 -7 25 -7 55 0 52 -1 55 -25 55 -25 0 -25 -1 -25 -84 l0 -84 -65 -68 -64
-69 -1 56 c0 50 -3 57 -27 68 -24 11 -29 9 -65 -26 l-38 -37 0 90 c0 85 2 92
26 115 14 13 40 41 56 62 29 36 30 40 14 55 -15 15 -19 13 -56 -23 l-40 -39 0
57 c0 54 1 57 26 57 14 0 23 4 20 9 -4 5 16 14 43 20 122 26 293 98 311 131 9
18 8 25 -6 41 -17 19 -44 26 -44 11 0 -4 6 -14 13 -21 15 -15 -13 -41 -88 -78
-68 -35 -200 -79 -165 -55 61 41 154 140 176 187 30 64 32 137 4 165 -27 27
-94 26 -137 -1z m102 -36 c13 -12 15 -26 11 -56 -14 -86 -80 -174 -187 -245
l-46 -31 -23 24 -22 23 41 82 c50 101 90 157 138 193 42 31 65 34 88 10z
m-436 -83 c51 -25 85 -67 110 -135 26 -69 26 -67 -4 -95 l-25 -24 -68 47 c-97
66 -134 107 -135 151 -1 42 26 76 60 76 13 0 41 -9 62 -20z m121 -799 l0 -55
-35 34 c-32 31 -35 39 -35 89 l0 55 35 -34 c32 -31 35 -39 35 -89z m140 71 c0
-43 -4 -52 -40 -87 l-40 -39 0 54 c0 47 4 58 32 87 18 18 36 33 40 33 4 0 8
-22 8 -48z m-217 -127 c20 -20 37 -36 37 -38 0 -1 -23 -1 -51 -1 -43 1 -57 7
-93 37 l-41 36 55 0 c49 0 59 -3 93 -34z m319 -2 c-35 -30 -50 -36 -92 -37
-28 0 -50 0 -50 1 0 2 17 18 38 38 33 31 43 34 92 34 l55 0 -43 -36z m-317
-133 c-36 -37 -43 -40 -94 -40 l-55 0 39 40 c36 37 43 40 94 40 l55 0 -39 -40z
m324 -1 l33 -39 -54 0 c-50 0 -57 3 -93 40 l-39 40 59 -1 c57 -1 62 -3 94 -40z
m-249 -54 c0 -49 -4 -59 -35 -93 l-34 -37 -1 53 c0 45 5 59 32 93 17 21 33 39
35 39 2 0 3 -25 3 -55z m140 -74 l0 -55 -40 39 c-37 36 -40 43 -40 94 l0 55
40 -39 c37 -36 40 -43 40 -94z"/>
<path d="M8960 8065 c0 -14 5 -25 10 -25 6 0 10 11 10 25 0 14 -4 25 -10 25
-5 0 -10 -11 -10 -25z"/>
<path d="M3118 8074 c-5 -4 -8 -19 -8 -33 0 -18 3 -22 11 -14 6 6 9 21 7 33
-1 12 -6 18 -10 14z"/>
<path d="M4890 8004 c0 -31 23 -28 28 4 2 15 -2 22 -12 22 -11 0 -16 -9 -16
-26z"/>
<path d="M4961 7983 c-17 -21 -31 -41 -31 -45 0 -5 -10 -8 -21 -8 -19 0 -21
-4 -17 -32 10 -61 -15 -83 -26 -24 -9 48 -41 84 -86 97 -55 17 -90 -6 -90 -58
0 -29 8 -43 38 -73 l39 -36 -58 9 c-32 5 -65 7 -73 4 -18 -7 -22 -47 -5 -47 6
0 9 7 5 15 -4 12 4 15 44 15 27 0 73 -5 102 -12 l53 -11 -45 -12 c-123 -32
-229 -114 -281 -216 -149 -297 98 -639 426 -587 211 33 355 213 343 428 -10
178 -135 326 -312 371 l-49 12 52 13 c67 18 147 52 162 71 10 11 9 18 -5 31
-17 16 -18 16 -12 -3 7 -24 -16 -40 -104 -75 l-54 -21 56 54 c60 57 72 82 66
138 -3 32 -5 34 -44 37 -38 3 -45 -1 -73 -35z m89 2 c21 -26 -13 -97 -73 -151
-44 -40 -53 -44 -56 -28 -2 11 -8 22 -13 25 -15 10 39 105 79 140 38 33 46 35
63 14z m-252 -55 c43 -27 79 -104 58 -126 -20 -20 -23 -19 -82 26 -57 43 -71
68 -54 100 14 25 36 25 78 0z"/>
<path d="M6800 7984 c0 -31 23 -28 28 4 2 15 -2 22 -12 22 -11 0 -16 -9 -16
-26z"/>
<path d="M8960 7965 c0 -14 5 -25 10 -25 6 0 10 11 10 25 0 14 -4 25 -10 25
-5 0 -10 -11 -10 -25z"/>
<path d="M3110 7949 c0 -17 4 -28 10 -24 6 3 10 17 10 31 0 13 -4 24 -10 24
-5 0 -10 -14 -10 -31z"/>
<path d="M6800 7884 c0 -31 23 -28 28 4 2 15 -2 22 -12 22 -11 0 -16 -9 -16
-26z"/>
<path d="M8960 7865 c0 -14 5 -25 10 -25 6 0 10 11 10 25 0 14 -4 25 -10 25
-5 0 -10 -11 -10 -25z"/>
<path d="M3110 7855 c0 -14 5 -25 10 -25 6 0 10 11 10 25 0 14 -4 25 -10 25
-5 0 -10 -11 -10 -25z"/>
<path d="M6800 7784 c0 -31 23 -28 28 4 2 15 -2 22 -12 22 -11 0 -16 -9 -16
-26z"/>
<path d="M3110 7755 c0 -14 5 -25 10 -25 6 0 10 11 10 25 0 14 -4 25 -10 25
-5 0 -10 -11 -10 -25z"/>
<path d="M6807 7713 c-4 -3 -7 -17 -7 -30 0 -33 24 -24 28 10 3 26 -7 35 -21
20z"/>
<path d="M3110 7655 c0 -14 5 -25 10 -25 6 0 10 11 10 25 0 14 -4 25 -10 25
-5 0 -10 -11 -10 -25z"/>
<path d="M6807 7613 c-4 -3 -7 -17 -7 -30 0 -33 24 -24 28 10 3 26 -7 35 -21
20z"/>
<path d="M3110 7555 c0 -14 5 -25 10 -25 6 0 10 11 10 25 0 14 -4 25 -10 25
-5 0 -10 -11 -10 -25z"/>
<path d="M6807 7513 c-4 -3 -7 -17 -7 -29 0 -17 4 -22 15 -18 8 4 15 17 15 30
0 23 -10 31 -23 17z"/>
<path d="M3110 7455 c0 -14 5 -25 10 -25 6 0 10 11 10 25 0 14 -4 25 -10 25
-5 0 -10 -11 -10 -25z"/>
<path d="M6807 7413 c-4 -3 -7 -17 -7 -29 0 -17 4 -22 15 -18 8 4 15 17 15 30
0 23 -10 31 -23 17z"/>
<path d="M3118 7384 c-5 -4 -8 -19 -8 -33 0 -18 3 -22 11 -14 6 6 9 21 7 33
-1 12 -6 18 -10 14z"/>
<path d="M7053 7351 c-33 -21 -99 -103 -128 -161 -10 -19 -35 -80 -56 -135
-30 -78 -38 -93 -39 -67 0 34 -13 42 -28 16 -7 -13 -11 -8 -16 22 -19 104 -79
183 -162 214 -65 24 -105 25 -144 5 -61 -31 -77 -119 -40 -218 21 -55 64 -104
135 -152 31 -21 34 -26 15 -21 -14 3 -78 16 -142 28 -93 18 -122 20 -142 10
-30 -14 -41 -48 -27 -85 15 -38 31 -33 31 9 l0 37 118 -6 c83 -4 144 -13 212
-33 52 -15 98 -30 102 -33 4 -3 -44 -98 -106 -210 l-114 -205 -286 -55 c-157
-30 -286 -58 -286 -61 0 -4 88 -101 195 -215 149 -159 195 -215 195 -234 0
-14 -16 -147 -34 -296 -19 -148 -34 -271 -33 -271 1 -1 121 54 266 122 145 68
267 124 271 124 4 0 122 -54 263 -120 140 -66 259 -120 264 -120 5 0 -7 131
-27 290 l-36 290 198 212 c109 117 198 215 198 218 0 4 -129 31 -286 61 l-287
55 -113 204 c-63 113 -114 207 -114 210 0 4 28 12 63 19 80 16 295 104 347
142 31 23 40 36 40 59 0 29 -29 70 -49 70 -18 0 -21 -18 -6 -30 30 -25 17 -49
-47 -91 -72 -45 -167 -93 -230 -114 l-43 -15 30 22 c63 45 186 184 215 243 52
104 57 213 12 258 -30 29 -108 34 -149 8z m108 -62 c18 -18 21 -29 16 -68 -15
-126 -94 -248 -225 -348 -45 -35 -87 -63 -92 -63 -5 0 -16 12 -23 27 -14 25
-11 34 30 132 74 178 150 292 215 324 43 22 54 21 79 -4z m-515 -134 c61 -40
83 -77 124 -207 27 -86 27 -87 9 -118 -22 -35 -23 -35 -114 33 -95 70 -167
139 -181 174 -22 52 -18 97 13 133 23 28 31 31 61 26 19 -3 59 -21 88 -41z"/>
<path d="M6807 7313 c-4 -3 -7 -17 -7 -29 0 -17 4 -22 15 -18 8 4 15 17 15 30
0 23 -10 31 -23 17z"/>
<path d="M3118 7284 c-5 -4 -8 -19 -8 -33 0 -18 3 -22 11 -14 6 6 9 21 7 33
-1 12 -6 18 -10 14z"/>
<path d="M3225 7186 c-29 -29 -52 -69 -71 -119 -16 -42 -33 -76 -39 -76 -5 -1
-15 18 -21 42 -21 81 -72 127 -141 127 -88 0 -88 -134 -1 -204 l33 -26 -45 7
c-82 14 -134 10 -138 -10 -2 -10 0 -26 4 -35 6 -14 8 -13 14 8 6 24 9 25 71
22 67 -3 179 -29 179 -42 0 -4 -28 -59 -63 -121 l-62 -114 -155 -31 c-85 -16
-161 -32 -167 -35 -8 -2 36 -56 103 -127 l116 -123 -21 -166 c-11 -92 -19
-168 -17 -170 2 -2 71 29 155 68 l151 72 152 -71 c83 -40 153 -71 155 -68 2 2
-5 75 -17 162 -11 88 -20 162 -20 167 0 4 52 62 115 130 67 71 110 124 102
126 -6 3 -82 19 -167 35 l-154 31 -63 114 c-35 63 -63 117 -63 121 0 3 21 11
46 18 62 17 186 75 202 95 10 12 11 21 2 36 -15 29 -32 26 -24 -3 5 -21 -2
-28 -58 -59 -114 -64 -126 -64 -62 1 63 64 90 111 100 170 5 35 3 44 -19 66
-37 37 -64 33 -112 -18z m90 -51 c-1 -68 -39 -132 -113 -190 -31 -25 -60 -45
-64 -45 -19 0 -5 72 28 140 41 86 99 152 129 148 17 -3 20 -10 20 -53z m-288
-41 c50 -37 93 -194 53 -194 -18 0 -132 93 -150 123 -23 36 -19 74 8 95 19 15
46 8 89 -24z"/>
<path d="M6807 7213 c-13 -12 -7 -43 8 -43 9 0 15 9 15 25 0 24 -10 32 -23 18z"/>
<path d="M3118 7184 c-5 -4 -8 -19 -8 -33 0 -18 3 -22 11 -14 6 6 9 21 7 33
-1 12 -6 18 -10 14z"/>
<path d="M6807 7113 c-4 -3 -7 -15 -7 -25 0 -26 24 -17 28 10 3 21 -8 29 -21
15z"/>
<path d="M3118 7084 c-5 -4 -8 -19 -8 -33 0 -18 3 -22 11 -14 6 6 9 21 7 33
-1 12 -6 18 -10 14z"/>
</g>
</svg>
